<svg version="1.1" viewBox="0.0 0.0 64.0 64.0" fill="none" stroke="none" stroke-linecap="square" stroke-miterlimit="10" xmlns:xlink="http://www.w3.org/1999/xlink" xmlns="http://www.w3.org/2000/svg"><clipPath id="p.0"><path d="m0 0l64.0 0l0 64.0l-64.0 0l0 -64.0z" clip-rule="nonzero"/></clipPath><g clip-path="url(#p.0)"><path fill="#ffffff" d="m0 0l64.0 0l0 64.0l-64.0 0z" fill-rule="evenodd"/><path fill="#ffffff" d="m14.766404 16.081484l0 0c0 -3.2760859 2.6557913 -5.931877 5.931878 -5.931877l23.726797 0l0 0c1.5732307 0 3.0820274 0.62496376 4.1944695 1.7374058c1.112442 1.112443 1.7374077 2.6212397 1.7374077 4.1944714l0 34.057503c0 3.276085 -2.6557922 5.931877 -5.931877 5.931877l-23.726797 0c-3.2760868 0 -5.931878 -2.6557922 -5.931878 -5.931877z" fill-rule="evenodd"/><path stroke="#595959" stroke-width="1.0" stroke-linejoin="round" stroke-linecap="butt" d="m14.766404 16.081484l0 0c0 -3.2760859 2.6557913 -5.931877 5.931878 -5.931877l23.726797 0l0 0c1.5732307 0 3.0820274 0.62496376 4.1944695 1.7374058c1.112442 1.112443 1.7374077 2.6212397 1.7374077 4.1944714l0 34.057503c0 3.276085 -2.6557922 5.931877 -5.931877 5.931877l-23.726797 0c-3.2760868 0 -5.931878 -2.6557922 -5.931878 -5.931877z" fill-rule="evenodd"/><path fill="#000000" fill-opacity="0.0" d="m22.435696 19.776903l20.251968 0" fill-rule="evenodd"/><path stroke="#595959" stroke-width="1.0" stroke-linejoin="round" stroke-linecap="butt" d="m22.435696 19.776903l20.251968 0" fill-rule="evenodd"/><path fill="#000000" fill-opacity="0.0" d="m22.435696 27.409449l20.251968 0" fill-rule="evenodd"/><path stroke="#595959" stroke-width="1.0" stroke-linejoin="round" stroke-linecap="butt" d="m22.435696 27.409449l20.251968 0" fill-rule="evenodd"/><path fill="#000000" fill-opacity="0.0" d="m22.435696 34.860893l20.251968 0" fill-rule="evenodd"/><path stroke="#595959" stroke-width="1.0" stroke-linejoin="round" stroke-linecap="butt" d="m22.435696 34.860893l20.251968 0" fill-rule="evenodd"/><path fill="#000000" fill-opacity="0.0" d="m22.435696 42.5853l20.251968 0" fill-rule="evenodd"/><path stroke="#595959" stroke-width="1.0" stroke-linejoin="round" stroke-linecap="butt" d="m22.435696 42.5853l20.251968 0" fill-rule="evenodd"/><path fill="#000000" fill-opacity="0.0" d="m13.349081 38.53806l38.425194 0l0 7.118107l-38.425194 0z" fill-rule="evenodd"/><path fill="#595959" d="m24.784023 41.77617l0 -3.171875l-1.140625 0l0 -0.640625l3.03125 0l0 0.640625l-1.125 0l0 3.171875l-0.765625 0zm2.3952637 -3.8125l1.40625 0q0.46875 0 0.71875 0.078125q0.34375 0.09375 0.578125 0.34375q0.234375 0.25 0.359375 0.625q0.125 0.359375 0.125 0.890625q0 0.46875 -0.109375 0.8125q-0.140625 0.421875 -0.40625 0.671875q-0.203125 0.203125 -0.546875 0.3125q-0.25 0.078125 -0.6875 0.078125l-1.4375 0l0 -3.8125zm0.765625 0.640625l0 2.53125l0.578125 0q0.3125 0 0.46875 -0.03125q0.1875 -0.046875 0.296875 -0.15625q0.125 -0.125 0.203125 -0.375q0.078125 -0.265625 0.078125 -0.703125q0 -0.4375 -0.078125 -0.671875q-0.078125 -0.234375 -0.21875 -0.359375q-0.140625 -0.140625 -0.34375 -0.1875q-0.171875 -0.046875 -0.640625 -0.046875l-0.34375 0zm4.5781403 3.171875l0 -3.78125l0.765625 0l0 3.140625l1.921875 0l0 0.640625l-2.6875 0zm3.2233887 -3.140625l0 -0.671875l0.734375 0l0 0.671875l-0.734375 0zm0 3.140625l0 -2.765625l0.734375 0l0 2.765625l-0.734375 0zm1.2303314 -0.78125l0.734375 -0.125q0.046875 0.21875 0.1875 0.328125q0.140625 0.109375 0.40625 0.109375q0.28125 0 0.421875 -0.09375q0.09375 -0.078125 0.09375 -0.203125q0 -0.078125 -0.046875 -0.140625q-0.0625 -0.046875 -0.25 -0.09375q-0.875 -0.1875 -1.125 -0.359375q-0.328125 -0.21875 -0.328125 -0.625q0 -0.359375 0.28125 -0.59375q0.296875 -0.25 0.890625 -0.25q0.5625 0 0.84375 0.1875q0.28125 0.1875 0.375 0.546875l-0.6875 0.125q-0.046875 -0.15625 -0.171875 -0.234375q-0.125 -0.09375 -0.34375 -0.09375q-0.296875 0 -0.421875 0.078125q-0.078125 0.0625 -0.078125 0.140625q0 0.078125 0.078125 0.140625q0.09375 0.078125 0.671875 0.21875q0.59375 0.125 0.828125 0.3125q0.21875 0.1875 0.21875 0.546875q0 0.375 -0.3125 0.65625q-0.3125 0.265625 -0.9375 0.265625q-0.5625 0 -0.90625 -0.21875q-0.328125 -0.234375 -0.421875 -0.625zm4.494507 -1.984375l0 0.578125l-0.5 0l0 1.125q0 0.328125 0 0.390625q0.015625 0.0625 0.0625 0.09375q0.0625 0.03125 0.140625 0.03125q0.09375 0 0.28125 -0.0625l0.0625 0.5625q-0.25 0.109375 -0.578125 0.109375q-0.1875 0 -0.359375 -0.0625q-0.15625 -0.0625 -0.234375 -0.171875q-0.0625 -0.109375 -0.09375 -0.28125q-0.015625 -0.140625 -0.015625 -0.515625l0 -1.21875l-0.34375 0l0 -0.578125l0.34375 0l0 -0.546875l0.734375 -0.421875l0 0.96875l0.5 0z" fill-rule="nonzero"/><path fill="#ffab40" d="m32.7015 15.246861l2.047245 1.1338587l-8.000002 14.80315l-2.047243 -1.1338596z" fill-rule="evenodd"/><path stroke="#595959" stroke-width="1.0" stroke-linejoin="round" stroke-linecap="butt" d="m32.7015 15.246861l2.047245 1.1338587l-8.000002 14.80315l-2.047243 -1.1338596z" fill-rule="evenodd"/><path fill="#ffab40" d="m26.863075 31.290186l-2.5826778 2.031496l0.37795258 -3.259842z" fill-rule="evenodd"/><path stroke="#595959" stroke-width="1.0" stroke-linejoin="round" stroke-linecap="butt" d="m26.863075 31.290186l-2.5826778 2.031496l0.37795258 -3.259842z" fill-rule="evenodd"/><path fill="#ffab40" d="m23.178478 17.086615l0 0c0 -0.32180405 0.2608738 -0.58267784 0.58267593 -0.58267784l0 0c0.1545372 0 0.302742 0.061389923 0.41201591 0.17066193c0.109272 0.10927391 0.17066193 0.25748062 0.17066193 0.41201591l0 0c0 0.32180405 -0.2608738 0.58267593 -0.58267784 0.58267593l0 0c-0.32180214 0 -0.58267593 -0.2608719 -0.58267593 -0.58267593z" fill-rule="evenodd"/><path stroke="#595959" stroke-width="1.0" stroke-linejoin="round" stroke-linecap="butt" d="m23.178478 17.086615l0 0c0 -0.32180405 0.2608738 -0.58267784 0.58267593 -0.58267784l0 0c0.1545372 0 0.302742 0.061389923 0.41201591 0.17066193c0.109272 0.10927391 0.17066193 0.25748062 0.17066193 0.41201591l0 0c0 0.32180405 -0.2608738 0.58267593 -0.58267784 0.58267593l0 0c-0.32180214 0 -0.58267593 -0.2608719 -0.58267593 -0.58267593z" fill-rule="evenodd"/><path fill="#ffab40" d="m23.178478 24.17323l0 0c0 -0.32180405 0.2608738 -0.58267784 0.58267593 -0.58267784l0 0c0.1545372 0 0.302742 0.061388016 0.41201591 0.17066193c0.109272 0.10927391 0.17066193 0.2574787 0.17066193 0.41201591l0 0c0 0.32180214 -0.2608738 0.58267593 -0.58267784 0.58267593l0 0c-0.32180214 0 -0.58267593 -0.2608738 -0.58267593 -0.58267593z" fill-rule="evenodd"/><path stroke="#595959" stroke-width="1.0" stroke-linejoin="round" stroke-linecap="butt" d="m23.178478 24.17323l0 0c0 -0.32180405 0.2608738 -0.58267784 0.58267593 -0.58267784l0 0c0.1545372 0 0.302742 0.061388016 0.41201591 0.17066193c0.109272 0.10927391 0.17066193 0.2574787 0.17066193 0.41201591l0 0c0 0.32180214 -0.2608738 0.58267593 -0.58267784 0.58267593l0 0c-0.32180214 0 -0.58267593 -0.2608738 -0.58267593 -0.58267593z" fill-rule="evenodd"/><path fill="#ffab40" d="m23.178478 39.553806l0 0c0 -0.32180405 0.2608738 -0.58267593 0.58267593 -0.58267593l0 0c0.1545372 0 0.302742 0.06138611 0.41201591 0.17066193c0.109272 0.109272 0.17066193 0.2574768 0.17066193 0.412014l0 0c0 0.32180405 -0.2608738 0.58267593 -0.58267784 0.58267593l0 0c-0.32180214 0 -0.58267593 -0.2608719 -0.58267593 -0.58267593z" fill-rule="evenodd"/><path stroke="#595959" stroke-width="1.0" stroke-linejoin="round" stroke-linecap="butt" d="m23.178478 39.553806l0 0c0 -0.32180405 0.2608738 -0.58267593 0.58267593 -0.58267593l0 0c0.1545372 0 0.302742 0.06138611 0.41201591 0.17066193c0.109272 0.109272 0.17066193 0.2574768 0.17066193 0.412014l0 0c0 0.32180405 -0.2608738 0.58267593 -0.58267784 0.58267593l0 0c-0.32180214 0 -0.58267593 -0.2608719 -0.58267593 -0.58267593z" fill-rule="evenodd"/></g></svg>